<?xml version="1.0"?>
<svg xmlns="http://www.w3.org/2000/svg" viewBox="0 0 50 50">
    <path d="M 9.15625 2.1113281 C 9.1214429 2.1057722 9.0965938 2.1115781 9.0820312 2.1269531 C 8.6650313 2.5679531 10.414687 5.5722344 14.304688 6.9902344 C 17.342688 8.0982344 21.903672 9.411375 24.388672 11.859375 C 24.692672 11.708375 25.070891 11.467922 25.337891 11.294922 C 26.036891 10.842922 26.870703 10.307703 27.845703 10.095703 C 22.938703 6.2387031 16.449516 5.39725 14.228516 4.90625 C 12.376953 4.4965625 9.6783569 2.1946667 9.15625 2.1113281 z M 1.1484375 5 C 1.1129619 4.9984216 1.0868125 5.0060625 1.0703125 5.0234375 C 0.5963125 5.5244375 2.4950781 8.2981875 6.7050781 9.8671875 C 11.030078 11.480188 19 14 19 18 C 19 18 19.109525 18.015228 19.128906 18.019531 C 19.078038 18.028186 19.033127 18.041609 18.978516 18.046875 C 18.705516 18.072875 16.921875 17.992188 16.921875 17.992188 C 16.921875 17.992188 17.003641 17.126656 16.056641 16.097656 C 15.641641 15.646656 14.169844 15.116641 13.464844 15.431641 C 14.449844 16.136641 14.722844 17.621797 14.339844 18.716797 C 13.158844 18.990797 12.257437 17.920797 8.6484375 19.591797 C 8.6484375 19.591797 11.548516 21.727953 11.603516 22.876953 C 9.0495156 22.549953 7.0600313 23.368953 5.5820312 24.626953 C 7.0570313 24.998953 8.0460469 26.424656 8.3730469 27.472656 C 6.8950469 27.417656 5.0905938 27.145734 3.5585938 28.677734 C 4.7625937 29.498734 4.205 31.068 3 32 C 3 32 5.431 46 19 46 C 19 43.61 21 36 24 36 C 26.034 36 27.885984 38.576844 28.833984 39.714844 C 30.013031 41.129414 30.853767 42.157092 31.708984 42.857422 L 30 45 C 30 45 32.318972 44.927329 34.0625 43.929688 C 34.369382 43.975227 34.696668 44 35.056641 44 C 37.047641 44 38 42.764 38 42 C 38 42 37.812398 41.894262 37.505859 41.697266 C 37.980229 40.630419 38 39 38 39 L 35.910156 40.537109 C 35.72064 40.385014 35.529211 40.225473 35.328125 40.050781 C 35.983585 39.04177 36 37 36 37 L 33.830078 38.597656 C 33.66459 38.416237 33.505471 38.216184 33.34375 38.021484 C 33.982051 37.003421 34 35 34 35 L 32.195312 36.328125 C 32.013722 35.996965 31.833708 35.645436 31.660156 35.285156 C 31.982428 34.255181 32 33 32 33 L 30.951172 33.771484 C 30.152574 32.037774 29.292433 30.255429 28 29 C 28.962206 28.037794 32.842084 27.873269 34.775391 29.773438 L 33 32 C 33 32 35.129539 31.983204 36.417969 31.431641 C 36.539409 31.541834 36.668669 31.645844 36.792969 31.753906 L 35 34 C 35 34 37.478012 33.992488 38.707031 33.308594 C 38.798856 33.379075 38.888728 33.447561 38.980469 33.517578 L 37 36 C 37 36 39.93373 35.980934 40.990234 35.091797 C 41.058063 35.146407 41.122624 35.201171 41.189453 35.255859 L 39 38 C 39 38 42.118275 37.985792 43.087891 37.017578 C 43.140415 37.077059 43.185969 37.137271 43.236328 37.197266 L 41 40 C 41 40 43.183017 40.058229 44.474609 39.439453 C 44.478877 39.455986 44.486162 39.471691 44.490234 39.488281 C 44.490234 39.488281 48 38.083156 48 35.160156 C 48 34.681156 47.985656 33.181969 46.847656 32.042969 C 46.386029 31.581342 45.927402 31.334157 45.539062 31.199219 C 46.520923 28.651286 45 26 45 26 C 45 26 44.586374 28.41046 43.132812 29.472656 L 37.931641 23.714844 C 37.931641 23.714844 38.478 19.365 36 18 C 30.665 15.059 32.620688 12 28.679688 12 C 27.147687 12 25.649 14 24 14 C 23.546483 14 23.167436 14.03037 22.818359 14.070312 C 16.399757 9.2794821 9.1629163 8.1430829 6.3613281 7.5234375 C 4.2632031 7.059375 1.6805713 5.0236755 1.1484375 5 z M 18.511719 20.162109 C 19.18825 20.151781 19.90025 20.169359 20.59375 20.224609 C 21.10775 20.265609 21.385688 20.787266 21.304688 21.697266 C 21.206687 22.801266 20.393906 23.337437 20.003906 23.023438 C 17.377906 20.912437 14.653172 21.104453 14.701172 20.814453 C 14.756672 20.482953 16.482125 20.193094 18.511719 20.162109 z M 32 22 C 34.171 22 35 25 35 25 C 33.203 25 30.886 24.886 29 23 C 29 23 30.643 22 32 22 z M 18.789062 24.140625 C 19.146062 24.186984 19.484063 24.507766 19.757812 25.134766 C 20.202813 26.151766 19.745906 27.011828 19.253906 26.923828 C 15.936906 26.331828 13.94075 28.015328 13.84375 27.736328 C 13.69675 27.313328 15.291734 25.330547 18.427734 24.185547 C 18.548984 24.141297 18.670063 24.125172 18.789062 24.140625 z M 17.902344 28.96875 C 18.191703 28.909734 18.540422 29.067672 18.919922 29.482422 C 19.535922 30.152422 19.408906 30.940906 19.003906 31.003906 C 16.270906 31.427906 15.169531 33.266172 15.019531 33.076172 C 14.792531 32.787172 15.503813 30.823609 17.632812 29.099609 C 17.715063 29.033109 17.805891 28.988422 17.902344 28.96875 z"/>
</svg>
